<?xml version="1.0" encoding="utf-8"?>
<!-- Generator: Adobe Illustrator 25.0.0, SVG Export Plug-In . SVG Version: 6.00 Build 0)  -->
<svg version="1.1" id="Capa_1" xmlns="http://www.w3.org/2000/svg" xmlns:xlink="http://www.w3.org/1999/xlink" x="0px" y="0px"
	 viewBox="0 0 384 384" style="enable-background:new 0 0 384 384;" xml:space="preserve">
<style type="text/css">
	.st0{fill:#FFFFFF;}
</style>
<g>
	<g>
		<path class="st0" d="M362.7,266.7c-26.6,0-52.3-4.3-76.2-12.2c-7.4-2.3-15.8-0.6-21.7,5.2l-46.9,47
			c-60.5-30.7-109.9-80.1-140.6-140.5l46.9-47.1c5.9-5.9,7.6-14.3,5.2-21.7c-7.9-23.9-12.2-49.6-12.2-76.2C117.3,9.5,107.8,0,96,0
			H21.3C9.6,0,0,9.5,0,21.3C0,221.7,162.3,384,362.7,384c11.8,0,21.3-9.5,21.3-21.3V288C384,276.2,374.5,266.7,362.7,266.7z"/>
	</g>
</g>
</svg>
